<?xml version="1.0" encoding="UTF-8" standalone="no"?>
<svg
   width="95.825447in"
   height="36.041668in"
   viewBox="0 0 6899.4324 2595.0001"
   version="1.1"
   id="svg76"
   sodipodi:docname="code4math-bsky-banner.svg"
   xml:space="preserve"
   inkscape:version="1.2.2 (732a01da63, 2022-12-09)"
   inkscape:export-filename="code4math-bsky-banner.png"
   inkscape:export-xdpi="148.38251"
   inkscape:export-ydpi="148.38251"
   xmlns:inkscape="http://www.inkscape.org/namespaces/inkscape"
   xmlns:sodipodi="http://sodipodi.sourceforge.net/DTD/sodipodi-0.dtd"
   xmlns:xlink="http://www.w3.org/1999/xlink"
   xmlns="http://www.w3.org/2000/svg"
   xmlns:svg="http://www.w3.org/2000/svg"><sodipodi:namedview
     id="namedview78"
     pagecolor="#ffffff"
     bordercolor="#000000"
     borderopacity="0.25"
     inkscape:showpageshadow="2"
     inkscape:pageopacity="0.0"
     inkscape:pagecheckerboard="0"
     inkscape:deskcolor="#d1d1d1"
     inkscape:document-units="pt"
     showgrid="false"
     inkscape:zoom="0.096354169"
     inkscape:cx="4566.4864"
     inkscape:cy="1696.8648"
     inkscape:window-width="1920"
     inkscape:window-height="1001"
     inkscape:window-x="-9"
     inkscape:window-y="-9"
     inkscape:window-maximized="1"
     inkscape:current-layer="svg76"
     showguides="false" /><defs
     id="defs38"><linearGradient
       inkscape:collect="always"
       id="linearGradient9762"><stop
         style="stop-color:#276d72;stop-opacity:0.89976692;"
         offset="0"
         id="stop9758" /><stop
         style="stop-color:#007579;stop-opacity:0.5081585;"
         offset="1"
         id="stop9760" /></linearGradient><linearGradient
       inkscape:collect="always"
       xlink:href="#linearGradient9762"
       id="linearGradient9764"
       x1="-108.97299"
       y1="3596.1079"
       x2="7145.5132"
       y2="-155.67567"
       gradientUnits="userSpaceOnUse"
       gradientTransform="matrix(0.94063533,0,0,0.67424794,154.9503,132.39954)" /><rect
       id="p"
       width="8"
       height="8"
       x="0"
       y="0" /></defs><rect
     style="fill:url(#linearGradient9764);fill-opacity:1;stroke:#0284c7;stroke-width:2.38915;stroke-linecap:round;stroke-linejoin:round"
     id="rect8181"
     width="6897.043"
     height="2592.6108"
     x="1.194575"
     y="1.194575" /><g
     id="g13319"
     transform="matrix(2.784398,0,0,2.784398,5610.8868,-602.53566)" /><g
     id="g1533"
     transform="translate(7.0366516,-518.94051)"><g
       id="g18188"
       transform="translate(-41.84905,-870.28376)"><g
         id="g17893"><g
           id="g17761"><g
             style="color:#000000;fill:none;stroke:#276d72;stroke-width:2.93333;stroke-dasharray:none;stroke-opacity:1"
             id="g15500"
             transform="matrix(18.75,0,0,18.75,874.81425,2131.8953)"><path
               d="M 7,19 V 11 C 7,9.89543 7.89543,9 9,9 h 11 c 1.1046,0 2,0.89543 2,2 v 8 c 0,1.1046 -0.8954,2 -2,2 H 9 C 7.89543,21 7,20.1046 7,19 Z"
               stroke="#000000"
               stroke-width="1.5"
               id="path15492"
               style="stroke:#276d72;stroke-width:2.93333;stroke-dasharray:none;stroke-opacity:1" /><path
               d="M 6.5,16 H 4 C 2.89543,16 2,15.1046 2,14 V 6 C 2,4.89543 2.89543,4 4,4 h 11 c 1.1046,0 2,0.89543 2,2 v 3"
               stroke="#000000"
               stroke-width="1.5"
               id="path15494"
               style="stroke:#276d72;stroke-width:2.93333;stroke-dasharray:none;stroke-opacity:1" /><path
               d="m 10,12 h 1"
               stroke="#000000"
               stroke-width="1.5"
               stroke-linecap="round"
               stroke-linejoin="round"
               id="path15496"
               style="stroke:#276d72;stroke-width:2.93333;stroke-dasharray:none;stroke-opacity:1" /><path
               d="M 5,7 H 6"
               stroke="#000000"
               stroke-width="1.5"
               stroke-linecap="round"
               stroke-linejoin="round"
               id="path15498"
               style="stroke:#276d72;stroke-width:2.93333;stroke-dasharray:none;stroke-opacity:1" /></g><g
             style="color:#000000;fill:none;stroke:#ffffff;stroke-width:1.33333;stroke-dasharray:none;stroke-opacity:1"
             id="g12194"
             transform="matrix(18.75,0,0,18.75,874.81425,2131.8953)"><path
               d="M 7,19 V 11 C 7,9.89543 7.89543,9 9,9 h 11 c 1.1046,0 2,0.89543 2,2 v 8 c 0,1.1046 -0.8954,2 -2,2 H 9 C 7.89543,21 7,20.1046 7,19 Z"
               stroke="#000000"
               stroke-width="1.5"
               id="path12176"
               style="stroke:#ffffff;stroke-width:1.33333;stroke-dasharray:none;stroke-opacity:1" /><path
               d="M 6.5,16 H 4 C 2.89543,16 2,15.1046 2,14 V 6 C 2,4.89543 2.89543,4 4,4 h 11 c 1.1046,0 2,0.89543 2,2 v 3"
               stroke="#000000"
               stroke-width="1.5"
               id="path12178"
               style="stroke:#ffffff;stroke-width:1.33333;stroke-dasharray:none;stroke-opacity:1" /><path
               d="m 10,12 h 1"
               stroke="#000000"
               stroke-width="1.5"
               stroke-linecap="round"
               stroke-linejoin="round"
               id="path12180"
               style="stroke:#ffffff;stroke-width:1.33333;stroke-dasharray:none;stroke-opacity:1" /><path
               d="M 5,7 H 6"
               stroke="#000000"
               stroke-width="1.5"
               stroke-linecap="round"
               stroke-linejoin="round"
               id="path12182"
               style="stroke:#ffffff;stroke-width:1.33333;stroke-dasharray:none;stroke-opacity:1" /></g></g><g
           id="g17625"
           transform="translate(-6.7574053)"><text
             xml:space="preserve"
             style="font-size:180px;line-height:1.2;font-family:'Cambria Math';-inkscape-font-specification:'Cambria Math, Normal';text-align:center;text-anchor:middle;fill:#ffffff;fill-opacity:1;stroke:#276d72;stroke-width:25;stroke-linecap:round;stroke-linejoin:round;stroke-dasharray:none;stroke-opacity:1"
             x="1105.2972"
             y="2794.3784"
             id="text17538"><tspan
               sodipodi:role="line"
               id="tspan17536"
               style="font-size:180px;stroke:#276d72;stroke-width:25;stroke-dasharray:none;stroke-opacity:1"
               x="1105.2972"
               y="2794.3784">Software</tspan></text><text
             xml:space="preserve"
             style="font-size:180px;line-height:1.2;font-family:'Cambria Math';-inkscape-font-specification:'Cambria Math, Normal';text-align:center;text-anchor:middle;fill:#ffffff;fill-opacity:1;stroke:none;stroke-width:55;stroke-linecap:round;stroke-linejoin:round;stroke-dasharray:none;stroke-opacity:1"
             x="1105.2972"
             y="2794.3784"
             id="text17456"><tspan
               sodipodi:role="line"
               id="tspan17454"
               style="font-size:180px;stroke:none;stroke-width:55"
               x="1105.2972"
               y="2794.3784">Software</tspan></text></g></g><g
         id="g17875"
         transform="translate(50.013517)"><g
           id="g17771"><g
             style="color:#000000;fill:none;stroke:#276d72;stroke-width:2.93333;stroke-dasharray:none;stroke-opacity:1"
             id="g15508"
             transform="matrix(18.75,0,0,18.75,2377.3007,2141.2703)"><path
               d="m 5,12 v 6 c 0,0 0,3 7,3 7,0 7,-3 7,-3 v -6"
               stroke="#000000"
               stroke-width="1.5"
               id="path15502"
               style="stroke:#276d72;stroke-width:2.93333;stroke-dasharray:none;stroke-opacity:1" /><path
               d="m 5,6 v 6 c 0,0 0,3 7,3 7,0 7,-3 7,-3 V 6"
               stroke="#000000"
               stroke-width="1.5"
               id="path15504"
               style="stroke:#276d72;stroke-width:2.93333;stroke-dasharray:none;stroke-opacity:1" /><path
               d="m 12,3 c 7,0 7,3 7,3 0,0 0,3 -7,3 C 5,9 5,6 5,6 5,6 5,3 12,3 Z"
               stroke="#000000"
               stroke-width="1.5"
               id="path15506"
               style="stroke:#276d72;stroke-width:2.93333;stroke-dasharray:none;stroke-opacity:1" /></g><g
             style="color:#000000;fill:none;stroke:#ffffff;stroke-width:1.33333;stroke-dasharray:none;stroke-opacity:1"
             id="g12574"
             transform="matrix(18.75,0,0,18.75,2377.3007,2141.2703)"><path
               d="m 5,12 v 6 c 0,0 0,3 7,3 7,0 7,-3 7,-3 v -6"
               stroke="#000000"
               stroke-width="1.5"
               id="path12559"
               style="stroke:#ffffff;stroke-width:1.33333;stroke-dasharray:none;stroke-opacity:1" /><path
               d="m 5,6 v 6 c 0,0 0,3 7,3 7,0 7,-3 7,-3 V 6"
               stroke="#000000"
               stroke-width="1.5"
               id="path12561"
               style="stroke:#ffffff;stroke-width:1.33333;stroke-dasharray:none;stroke-opacity:1" /><path
               d="m 12,3 c 7,0 7,3 7,3 0,0 0,3 -7,3 C 5,9 5,6 5,6 5,6 5,3 12,3 Z"
               stroke="#000000"
               stroke-width="1.5"
               id="path12563"
               style="stroke:#ffffff;stroke-width:1.33333;stroke-dasharray:none;stroke-opacity:1" /></g></g><g
           id="g17631"
           transform="translate(-6.0576984)"><text
             xml:space="preserve"
             style="font-size:180px;line-height:1.2;font-family:'Cambria Math';-inkscape-font-specification:'Cambria Math, Normal';text-align:center;text-anchor:middle;fill:#ffffff;fill-opacity:1;stroke:#276d72;stroke-width:25;stroke-linecap:round;stroke-linejoin:round;stroke-dasharray:none;stroke-opacity:1"
             x="2607.5674"
             y="2794.1587"
             id="text17542"><tspan
               sodipodi:role="line"
               id="tspan17540"
               style="font-size:180px;stroke:#276d72;stroke-width:25;stroke-dasharray:none;stroke-opacity:1"
               x="2607.5674"
               y="2794.1587">Databases</tspan></text><text
             xml:space="preserve"
             style="font-size:180px;line-height:1.2;font-family:'Cambria Math';-inkscape-font-specification:'Cambria Math, Normal';text-align:center;text-anchor:middle;fill:#ffffff;fill-opacity:1;stroke:none;stroke-width:55;stroke-linecap:round;stroke-linejoin:round;stroke-dasharray:none;stroke-opacity:1"
             x="2607.5674"
             y="2794.1587"
             id="text17510"><tspan
               sodipodi:role="line"
               id="tspan17508"
               style="font-size:180px;stroke:none;stroke-width:55"
               x="2607.5674"
               y="2794.1587">Databases</tspan></text></g></g><g
         id="g17829"
         transform="translate(100.02708)"><g
           id="g17785"><g
             style="color:#000000;fill:none;stroke:#276d72;stroke-width:2.93333;stroke-dasharray:none;stroke-opacity:1"
             id="g15520"
             transform="matrix(18.75,0,0,18.75,3879.7871,2141.2703)"><rect
               x="2"
               y="21"
               width="7"
               height="5"
               rx="0.60000002"
               transform="rotate(-90,2,21)"
               stroke="#000000"
               stroke-width="1.5"
               id="rect15510"
               style="stroke:#276d72;stroke-width:2.93333;stroke-dasharray:none;stroke-opacity:1" /><rect
               x="17"
               y="15.5"
               width="7"
               height="5"
               rx="0.60000002"
               transform="rotate(-90,17,15.5)"
               stroke="#000000"
               stroke-width="1.5"
               id="rect15512"
               style="stroke:#276d72;stroke-width:2.93333;stroke-dasharray:none;stroke-opacity:1" /><rect
               x="2"
               y="10"
               width="7"
               height="5"
               rx="0.60000002"
               transform="rotate(-90,2,10)"
               stroke="#000000"
               stroke-width="1.5"
               id="rect15514"
               style="stroke:#276d72;stroke-width:2.93333;stroke-dasharray:none;stroke-opacity:1" /><path
               d="m 7,17.5 h 3.5 c 1.1046,0 2,-0.8954 2,-2 v -7 c 0,-1.10457 -0.8954,-2 -2,-2 H 7"
               stroke="#000000"
               stroke-width="1.5"
               id="path15516"
               style="stroke:#276d72;stroke-width:2.93333;stroke-dasharray:none;stroke-opacity:1" /><path
               d="M 12.5,12 H 17"
               stroke="#000000"
               stroke-width="1.5"
               id="path15518"
               style="stroke:#276d72;stroke-width:2.93333;stroke-dasharray:none;stroke-opacity:1" /></g><g
             style="color:#000000;fill:none;stroke:#ffffff;stroke-width:1.33333;stroke-dasharray:none;stroke-opacity:1"
             id="g12597"
             transform="matrix(18.75,0,0,18.75,3879.7871,2141.2703)"><rect
               x="2"
               y="21"
               width="7"
               height="5"
               rx="0.60000002"
               transform="rotate(-90,2,21)"
               stroke="#000000"
               stroke-width="1.5"
               id="rect12576"
               style="stroke:#ffffff;stroke-width:1.33333;stroke-dasharray:none;stroke-opacity:1" /><rect
               x="17"
               y="15.5"
               width="7"
               height="5"
               rx="0.60000002"
               transform="rotate(-90,17,15.5)"
               stroke="#000000"
               stroke-width="1.5"
               id="rect12578"
               style="stroke:#ffffff;stroke-width:1.33333;stroke-dasharray:none;stroke-opacity:1" /><rect
               x="2"
               y="10"
               width="7"
               height="5"
               rx="0.60000002"
               transform="rotate(-90,2,10)"
               stroke="#000000"
               stroke-width="1.5"
               id="rect12580"
               style="stroke:#ffffff;stroke-width:1.33333;stroke-dasharray:none;stroke-opacity:1" /><path
               d="m 7,17.5 h 3.5 c 1.1046,0 2,-0.8954 2,-2 v -7 c 0,-1.10457 -0.8954,-2 -2,-2 H 7"
               stroke="#000000"
               stroke-width="1.5"
               id="path12582"
               style="stroke:#ffffff;stroke-width:1.33333;stroke-dasharray:none;stroke-opacity:1" /><path
               d="M 12.5,12 H 17"
               stroke="#000000"
               stroke-width="1.5"
               id="path12584"
               style="stroke:#ffffff;stroke-width:1.33333;stroke-dasharray:none;stroke-opacity:1" /></g></g><g
           id="g17637"
           transform="translate(16.63085)"><text
             xml:space="preserve"
             style="font-size:180px;line-height:1.2;font-family:'Cambria Math';-inkscape-font-specification:'Cambria Math, Normal';text-align:center;text-anchor:middle;fill:#ffffff;fill-opacity:1;stroke:#276d72;stroke-width:25;stroke-linecap:round;stroke-linejoin:round;stroke-dasharray:none;stroke-opacity:1"
             x="4086.4863"
             y="2794.3784"
             id="text17546"><tspan
               sodipodi:role="line"
               id="tspan17544"
               style="font-size:180px;stroke:#276d72;stroke-width:25;stroke-dasharray:none;stroke-opacity:1"
               x="4086.4863"
               y="2794.3784">Infrastructure</tspan></text><text
             xml:space="preserve"
             style="font-size:180px;line-height:1.2;font-family:'Cambria Math';-inkscape-font-specification:'Cambria Math, Normal';text-align:center;text-anchor:middle;fill:#ffffff;fill-opacity:1;stroke:none;stroke-width:55;stroke-linecap:round;stroke-linejoin:round;stroke-dasharray:none;stroke-opacity:1"
             x="4086.4863"
             y="2794.3784"
             id="text17514"><tspan
               sodipodi:role="line"
               id="tspan17512"
               style="font-size:180px;stroke:none;stroke-width:55"
               x="4086.4863"
               y="2794.3784">Infrastructure</tspan></text></g></g><g
         id="g17859"><g
           id="g17809"><g
             id="g15542"
             transform="translate(1146.517,-132.32424)"
             style="stroke:#276d72;stroke-width:55;stroke-dasharray:none;stroke-opacity:1"><g
               style="color:#000000;fill:none;stroke:#276d72;stroke-width:2.93333;stroke-dasharray:none;stroke-opacity:1"
               id="g15530"
               transform="matrix(18.75,0,0,18.75,4460.8377,2282.9695)"><path
                 d="m 1,20 v -1 c 0,-3.866 3.13401,-7 7,-7 v 0 c 3.866,0 7,3.134 7,7 v 1"
                 stroke="#000000"
                 stroke-width="1.5"
                 stroke-linecap="round"
                 id="path15522"
                 style="stroke:#276d72;stroke-width:2.93333;stroke-dasharray:none;stroke-opacity:1" /><path
                 d="m 13,14 v 0 c 0,-2.7614 2.2386,-5 5,-5 v 0 c 2.7614,0 5,2.2386 5,5 v 0.5"
                 stroke="#000000"
                 stroke-width="1.5"
                 stroke-linecap="round"
                 id="path15524"
                 style="stroke:#276d72;stroke-width:2.93333;stroke-dasharray:none;stroke-opacity:1" /><path
                 d="m 8,12 c 2.2091,0 4,-1.7909 4,-4 C 12,5.79086 10.2091,4 8,4 5.79086,4 4,5.79086 4,8 c 0,2.2091 1.79086,4 4,4 z"
                 stroke="#000000"
                 stroke-width="1.5"
                 stroke-linecap="round"
                 stroke-linejoin="round"
                 id="path15526"
                 style="stroke:#276d72;stroke-width:2.93333;stroke-dasharray:none;stroke-opacity:1" /><path
                 d="m 18,9 c 1.6569,0 3,-1.34315 3,-3 0,-1.65685 -1.3431,-3 -3,-3 -1.6569,0 -3,1.34315 -3,3 0,1.65685 1.3431,3 3,3 z"
                 stroke="#000000"
                 stroke-width="1.5"
                 stroke-linecap="round"
                 stroke-linejoin="round"
                 id="path15528"
                 style="stroke:#276d72;stroke-width:2.93333;stroke-dasharray:none;stroke-opacity:1" /></g><g
               style="color:#000000;fill:none;stroke:#276d72;stroke-width:2.93333;stroke-dasharray:none;stroke-opacity:1"
               id="g15540"
               transform="matrix(-18.75,0,0,18.75,4760.7566,2282.9695)"><path
                 d="m 1,20 v -1 c 0,-3.866 3.13401,-7 7,-7 v 0 c 3.866,0 7,3.134 7,7 v 1"
                 stroke="#000000"
                 stroke-width="1.5"
                 stroke-linecap="round"
                 id="path15532"
                 style="stroke:#276d72;stroke-width:2.93333;stroke-dasharray:none;stroke-opacity:1" /><path
                 d="m 13,14 v 0 c 0,-2.7614 2.2386,-5 5,-5 v 0 c 2.7614,0 5,2.2386 5,5 v 0.5"
                 stroke="#000000"
                 stroke-width="1.5"
                 stroke-linecap="round"
                 id="path15534"
                 style="stroke:#276d72;stroke-width:2.93333;stroke-dasharray:none;stroke-opacity:1" /><path
                 d="m 8,12 c 2.2091,0 4,-1.7909 4,-4 C 12,5.79086 10.2091,4 8,4 5.79086,4 4,5.79086 4,8 c 0,2.2091 1.79086,4 4,4 z"
                 stroke="#000000"
                 stroke-width="1.5"
                 stroke-linecap="round"
                 stroke-linejoin="round"
                 id="path15536"
                 style="stroke:#276d72;stroke-width:2.93333;stroke-dasharray:none;stroke-opacity:1" /><path
                 d="m 18,9 c 1.6569,0 3,-1.34315 3,-3 0,-1.65685 -1.3431,-3 -3,-3 -1.6569,0 -3,1.34315 -3,3 0,1.65685 1.3431,3 3,3 z"
                 stroke="#000000"
                 stroke-width="1.5"
                 stroke-linecap="round"
                 stroke-linejoin="round"
                 id="path15538"
                 style="stroke:#276d72;stroke-width:2.93333;stroke-dasharray:none;stroke-opacity:1" /></g></g><g
             id="g12652"
             transform="translate(1146.517,-132.32424)"
             style="stroke:#ffffff;stroke-width:25;stroke-dasharray:none;stroke-opacity:1"><g
               style="color:#000000;fill:none;stroke:#ffffff;stroke-width:1.33333;stroke-dasharray:none;stroke-opacity:1"
               id="g12617"
               transform="matrix(18.75,0,0,18.75,4460.8377,2282.9695)"><path
                 d="m 1,20 v -1 c 0,-3.866 3.13401,-7 7,-7 v 0 c 3.866,0 7,3.134 7,7 v 1"
                 stroke="#000000"
                 stroke-width="1.5"
                 stroke-linecap="round"
                 id="path12599"
                 style="stroke:#ffffff;stroke-width:1.33333;stroke-dasharray:none;stroke-opacity:1" /><path
                 d="m 13,14 v 0 c 0,-2.7614 2.2386,-5 5,-5 v 0 c 2.7614,0 5,2.2386 5,5 v 0.5"
                 stroke="#000000"
                 stroke-width="1.5"
                 stroke-linecap="round"
                 id="path12601"
                 style="stroke:#ffffff;stroke-width:1.33333;stroke-dasharray:none;stroke-opacity:1" /><path
                 d="m 8,12 c 2.2091,0 4,-1.7909 4,-4 C 12,5.79086 10.2091,4 8,4 5.79086,4 4,5.79086 4,8 c 0,2.2091 1.79086,4 4,4 z"
                 stroke="#000000"
                 stroke-width="1.5"
                 stroke-linecap="round"
                 stroke-linejoin="round"
                 id="path12603"
                 style="stroke:#ffffff;stroke-width:1.33333;stroke-dasharray:none;stroke-opacity:1" /><path
                 d="m 18,9 c 1.6569,0 3,-1.34315 3,-3 0,-1.65685 -1.3431,-3 -3,-3 -1.6569,0 -3,1.34315 -3,3 0,1.65685 1.3431,3 3,3 z"
                 stroke="#000000"
                 stroke-width="1.5"
                 stroke-linecap="round"
                 stroke-linejoin="round"
                 id="path12605"
                 style="stroke:#ffffff;stroke-width:1.33333;stroke-dasharray:none;stroke-opacity:1" /></g><g
               style="color:#000000;fill:none;stroke:#ffffff;stroke-width:1.33333;stroke-dasharray:none;stroke-opacity:1"
               id="g12627"
               transform="matrix(-18.75,0,0,18.75,4760.7566,2282.9695)"><path
                 d="m 1,20 v -1 c 0,-3.866 3.13401,-7 7,-7 v 0 c 3.866,0 7,3.134 7,7 v 1"
                 stroke="#000000"
                 stroke-width="1.5"
                 stroke-linecap="round"
                 id="path12619"
                 style="stroke:#ffffff;stroke-width:1.33333;stroke-dasharray:none;stroke-opacity:1" /><path
                 d="m 13,14 v 0 c 0,-2.7614 2.2386,-5 5,-5 v 0 c 2.7614,0 5,2.2386 5,5 v 0.5"
                 stroke="#000000"
                 stroke-width="1.5"
                 stroke-linecap="round"
                 id="path12621"
                 style="stroke:#ffffff;stroke-width:1.33333;stroke-dasharray:none;stroke-opacity:1" /><path
                 d="m 8,12 c 2.2091,0 4,-1.7909 4,-4 C 12,5.79086 10.2091,4 8,4 5.79086,4 4,5.79086 4,8 c 0,2.2091 1.79086,4 4,4 z"
                 stroke="#000000"
                 stroke-width="1.5"
                 stroke-linecap="round"
                 stroke-linejoin="round"
                 id="path12623"
                 style="stroke:#ffffff;stroke-width:1.33333;stroke-dasharray:none;stroke-opacity:1" /><path
                 d="m 18,9 c 1.6569,0 3,-1.34315 3,-3 0,-1.65685 -1.3431,-3 -3,-3 -1.6569,0 -3,1.34315 -3,3 0,1.65685 1.3431,3 3,3 z"
                 stroke="#000000"
                 stroke-width="1.5"
                 stroke-linecap="round"
                 stroke-linejoin="round"
                 id="path12625"
                 style="stroke:#ffffff;stroke-width:1.33333;stroke-dasharray:none;stroke-opacity:1" /></g></g></g><g
           id="g17643"
           transform="translate(-15.786924)"><text
             xml:space="preserve"
             style="font-size:180px;line-height:1.2;font-family:'Cambria Math';-inkscape-font-specification:'Cambria Math, Normal';text-align:center;text-anchor:middle;fill:#ffffff;fill-opacity:1;stroke:#276d72;stroke-width:25;stroke-linecap:round;stroke-linejoin:round;stroke-dasharray:none;stroke-opacity:1"
             x="5767.7837"
             y="2773.4165"
             id="text17550"><tspan
               sodipodi:role="line"
               id="tspan17548"
               style="font-size:180px;stroke:#276d72;stroke-width:25;stroke-dasharray:none;stroke-opacity:1"
               x="5767.7837"
               y="2773.4165">Community</tspan></text><text
             xml:space="preserve"
             style="font-size:180px;line-height:1.2;font-family:'Cambria Math';-inkscape-font-specification:'Cambria Math, Normal';text-align:center;text-anchor:middle;fill:#ffffff;fill-opacity:1;stroke:none;stroke-width:55;stroke-linecap:round;stroke-linejoin:round;stroke-dasharray:none;stroke-opacity:1"
             x="5767.7837"
             y="2773.4165"
             id="text17518"><tspan
               sodipodi:role="line"
               id="tspan17516"
               style="font-size:180px;stroke:none;stroke-width:55"
               x="5767.7837"
               y="2773.4165">Community</tspan></text></g></g></g><text
       xml:space="preserve"
       style="font-size:180px;line-height:1.2;font-family:'Cambria Math';-inkscape-font-specification:'Cambria Math, Normal';text-align:center;text-anchor:middle;fill:#ffffff;fill-opacity:1;stroke:#276d72;stroke-width:25;stroke-linecap:round;stroke-linejoin:round;stroke-dasharray:none;stroke-opacity:1"
       x="3449.4031"
       y="2282.1484"
       id="text888"><tspan
         id="tspan886"
         style="font-size:180px;stroke:#276d72;stroke-width:25;stroke-opacity:1"
         x="3449.4031"
         y="2282.1484"
         sodipodi:role="line">Join our open community of researchers and developers at <tspan
   style="font-style:normal;font-variant:normal;font-weight:bold;font-stretch:normal;font-size:180px;font-family:'Courier New';-inkscape-font-specification:'Courier New';stroke:#276d72;stroke-opacity:1"
   id="tspan884">code4math.org</tspan>!</tspan></text><text
       xml:space="preserve"
       style="font-size:180px;line-height:1.2;font-family:'Cambria Math';-inkscape-font-specification:'Cambria Math, Normal';text-align:center;text-anchor:middle;fill:#ffffff;fill-opacity:1;stroke:none;stroke-width:25;stroke-linecap:round;stroke-linejoin:round;stroke-dasharray:none;stroke-opacity:1"
       x="3449.4031"
       y="2282.1484"
       id="text17897"><tspan
         id="tspan17895"
         style="font-size:180px;stroke:none;stroke-width:25"
         x="3449.4031"
         y="2282.1484"
         sodipodi:role="line">Join our open community of researchers and developers at <tspan
   style="font-style:normal;font-variant:normal;font-weight:bold;font-stretch:normal;font-size:180px;font-family:'Courier New';-inkscape-font-specification:'Courier New'"
   id="tspan18190">code4math.org</tspan>!</tspan></text></g></svg>
